<?xml version="1.0" encoding="UTF-8"?>
<svg width="163mm" height="155.34mm" version="1.1" viewBox="0 0 163 155.34" xmlns="http://www.w3.org/2000/svg" xmlns:cc="http://creativecommons.org/ns#" xmlns:dc="http://purl.org/dc/elements/1.1/" xmlns:rdf="http://www.w3.org/1999/02/22-rdf-syntax-ns#">
 <defs>
  <marker id="marker1479" overflow="visible" orient="auto">
   <path transform="scale(-.6)" d="m8.7186 4.0337-10.926-4.0177 10.926-4.0177c-1.7455 2.3721-1.7354 5.6175-6e-7 8.0354z" fill-rule="evenodd" stroke="#000" stroke-linejoin="round" stroke-width=".625"/>
  </marker>
  <marker id="marker1469" overflow="visible" orient="auto">
   <path transform="scale(-.6)" d="m8.7186 4.0337-10.926-4.0177 10.926-4.0177c-1.7455 2.3721-1.7354 5.6175-6e-7 8.0354z" fill-rule="evenodd" stroke="#000" stroke-linejoin="round" stroke-width=".625"/>
  </marker>
  <marker id="marker1459" overflow="visible" orient="auto">
   <path transform="scale(-.6)" d="m8.7186 4.0337-10.926-4.0177 10.926-4.0177c-1.7455 2.3721-1.7354 5.6175-6e-7 8.0354z" fill-rule="evenodd" stroke="#000" stroke-linejoin="round" stroke-width=".625"/>
  </marker>
 </defs>
 <metadata>
  <rdf:RDF>
   <cc:Work rdf:about="">
    <dc:format>image/svg+xml</dc:format>
    <dc:type rdf:resource="http://purl.org/dc/dcmitype/StillImage"/>
    <dc:title/>
   </cc:Work>
  </rdf:RDF>
 </metadata>
 <g transform="translate(-397.4 -128.6)">
  <g>
   <ellipse cx="478.89" cy="157.71" rx="26.628" ry="10.951" fill="#fcf696" stop-color="#000000"/>
   <text x="461.98328" y="158.59911" fill="#000000" font-family="'Segoe UI'" font-size="3.5278px" stroke-width=".26458" style="font-variant-caps:normal;font-variant-east-asian:normal;font-variant-ligatures:normal;font-variant-numeric:normal;line-height:1.25" xml:space="preserve"><tspan x="461.98328" y="158.59911" font-family="'Segoe UI'" font-size="3.5278px" stroke-width=".26458" style="font-variant-caps:normal;font-variant-east-asian:normal;font-variant-ligatures:normal;font-variant-numeric:normal">oracle generate Olivia</tspan></text>
   <path transform="rotate(127.4 232.27 148.61)" d="m145.91-95.661 25.792 9.3344-25.398 10.359-0.90743 27.414-17.7-20.954-26.353 7.6084 14.458-23.309-15.379-22.712 26.636 6.5478 16.848-21.645z" fill="#fcf696" stop-color="#000000"/>
   <text x="478.80569" y="206.61983" fill="#000000" font-family="'Segoe UI'" font-size="3.5278px" stroke-width=".26458" text-align="center" text-anchor="middle" style="font-variant-caps:normal;font-variant-east-asian:normal;font-variant-ligatures:normal;font-variant-numeric:normal;line-height:1.25" xml:space="preserve"><tspan x="478.80569" y="206.61983">My oracle key is</tspan><tspan x="478.80569" y="211.02956">&lt;OliviaPubKey&gt;</tspan></text>
   <ellipse cx="430.13" cy="269.64" rx="32.737" ry="14.294" fill="#ffc0c8" stop-color="#000000"/>
   <text x="404.22006" y="270.62659" fill="#000000" font-family="'Segoe UI'" font-size="3.5278px" stroke-width=".26458" style="font-variant-caps:normal;font-variant-east-asian:normal;font-variant-ligatures:normal;font-variant-numeric:normal;line-height:1.25" xml:space="preserve"><tspan x="404.22006" y="270.62659" font-family="'Segoe UI'" font-size="3.5278px" stroke-width=".26458" style="font-variant-caps:normal;font-variant-east-asian:normal;font-variant-ligatures:normal;font-variant-numeric:normal">oracle add Olivia &lt;OliviaPubKey&gt;</tspan></text>
   <ellipse cx="527.65" cy="269.64" rx="32.737" ry="14.294" fill="#a9def9" stop-color="#000000"/>
   <g transform="translate(692.85 131.66)" stroke-width=".26458" style="font-variant-caps:normal;font-variant-east-asian:normal;font-variant-ligatures:normal;font-variant-numeric:normal" aria-label="oracle add Olivia &lt;OliviaPubKey&gt;">
    <path d="m-190.08 139.01q-0.39102 0-0.62529-0.24632-0.23254-0.24805-0.23254-0.65629 0-0.44442 0.24288-0.69419 0.24287-0.24977 0.65629-0.24977 0.39446 0 0.61495 0.24288 0.22221 0.24288 0.22221 0.67352 0 0.42202-0.23944 0.67696-0.23771 0.25321-0.63906 0.25321zm0.0207-1.6089q-0.27217 0-0.43064 0.18604-0.15848 0.18431-0.15848 0.50987 0 0.31351 0.1602 0.49437 0.1602 0.18087 0.42892 0.18087 0.27388 0 0.4203-0.17742 0.14814-0.17742 0.14814-0.50471 0-0.33073-0.14814-0.50987-0.14642-0.17915-0.4203-0.17915z" style="font-variant-caps:normal;font-variant-east-asian:normal;font-variant-ligatures:normal;font-variant-numeric:normal"/>
    <path d="m-187.83 137.49q-0.0741-0.0568-0.21359-0.0568-0.18087 0-0.30317 0.17053-0.12058 0.17053-0.12058 0.46509v0.89917h-0.2825v-1.7639h0.2825v0.36346h7e-3q0.0603-0.18604 0.18431-0.28939 0.12403-0.10508 0.27733-0.10508 0.11025 0 0.16881 0.0241z" style="font-variant-caps:normal;font-variant-east-asian:normal;font-variant-ligatures:normal;font-variant-numeric:normal"/>
    <path d="m-186.27 138.97h-0.2825v-0.27561h-7e-3q-0.18431 0.31695-0.54261 0.31695-0.26355 0-0.41341-0.13952-0.14814-0.13953-0.14814-0.37035 0-0.49437 0.58223-0.57533l0.52882-0.0741q0-0.44959-0.36346-0.44959-0.31867 0-0.57533 0.21704v-0.28939q0.2601-0.16536 0.59945-0.16536 0.62184 0 0.62184 0.65801zm-0.2825-0.89228-0.42547 0.0586q-0.19637 0.0276-0.29628 0.0982-0.0999 0.0689-0.0999 0.24633 0 0.12919 0.0913 0.21187 0.093 0.081 0.24632 0.081 0.21015 0 0.34623-0.14642 0.13781-0.14814 0.13781-0.37379z" style="font-variant-caps:normal;font-variant-east-asian:normal;font-variant-ligatures:normal;font-variant-numeric:normal"/>
    <path d="m-184.53 138.89q-0.20326 0.1223-0.48232 0.1223-0.37723 0-0.60978-0.2446-0.23082-0.24632-0.23082-0.63734 0-0.43581 0.24977-0.69936 0.24977-0.26527 0.66663-0.26527 0.23254 0 0.40996 0.0861v0.28939q-0.19637-0.13781-0.4203-0.13781-0.27044 0-0.44442 0.19465-0.17225 0.19292-0.17225 0.50815 0 0.31006 0.16192 0.48921 0.16364 0.17914 0.43753 0.17914 0.23082 0 0.43408-0.15331z" style="font-variant-caps:normal;font-variant-east-asian:normal;font-variant-ligatures:normal;font-variant-numeric:normal"/>
    <path d="m-183.81 138.97h-0.28249v-2.6114h0.28249z" style="font-variant-caps:normal;font-variant-east-asian:normal;font-variant-ligatures:normal;font-variant-numeric:normal"/>
    <path d="m-181.82 138.16h-1.2454q7e-3 0.29456 0.15848 0.45475 0.15158 0.1602 0.41686 0.1602 0.298 0 0.54777-0.19637v0.26527q-0.23255 0.16881-0.61495 0.16881-0.3738 0-0.58739-0.23943-0.2136-0.24116-0.2136-0.67696 0-0.41169 0.23255-0.67008 0.23426-0.2601 0.58049-0.2601 0.34624 0 0.53572 0.22393t0.18948 0.62184zm-0.28939-0.23943q-2e-3 -0.24461-0.11886-0.38069-0.11541-0.13608-0.32211-0.13608-0.19982 0-0.33935 0.14297-0.13952 0.14297-0.17225 0.3738z" style="font-variant-caps:normal;font-variant-east-asian:normal;font-variant-ligatures:normal;font-variant-numeric:normal"/>
    <path d="m-179.17 138.97h-0.2825v-0.27561h-7e-3q-0.18431 0.31695-0.5426 0.31695-0.26355 0-0.41342-0.13952-0.14814-0.13953-0.14814-0.37035 0-0.49437 0.58223-0.57533l0.52882-0.0741q0-0.44959-0.36346-0.44959-0.31867 0-0.57533 0.21704v-0.28939q0.2601-0.16536 0.59945-0.16536 0.62184 0 0.62184 0.65801zm-0.2825-0.89228-0.42547 0.0586q-0.19637 0.0276-0.29628 0.0982-0.0999 0.0689-0.0999 0.24633 0 0.12919 0.0913 0.21187 0.093 0.081 0.24632 0.081 0.21015 0 0.34624-0.14642 0.1378-0.14814 0.1378-0.37379z" style="font-variant-caps:normal;font-variant-east-asian:normal;font-variant-ligatures:normal;font-variant-numeric:normal"/>
    <path d="m-177.13 138.97h-0.2825v-0.29972h-7e-3q-0.19637 0.34106-0.60634 0.34106-0.33245 0-0.53226-0.23599-0.1981-0.23771-0.1981-0.64595 0-0.43753 0.22049-0.70108 0.22048-0.26355 0.58739-0.26355 0.36346 0 0.52882 0.28594h7e-3v-1.0921h0.2825zm-0.2825-0.79754v-0.2601q0-0.2136-0.14125-0.36174t-0.35829-0.14814q-0.25838 0-0.40652 0.18948t-0.14814 0.52366q0 0.30489 0.14125 0.48231 0.14297 0.1757 0.38241 0.1757 0.23598 0 0.3824-0.17053 0.14814-0.17053 0.14814-0.43064z" style="font-variant-caps:normal;font-variant-east-asian:normal;font-variant-ligatures:normal;font-variant-numeric:normal"/>
    <path d="m-175.05 138.97h-0.2825v-0.29972h-7e-3q-0.19637 0.34106-0.60634 0.34106-0.33245 0-0.53227-0.23599-0.19809-0.23771-0.19809-0.64595 0-0.43753 0.22049-0.70108 0.22048-0.26355 0.58739-0.26355 0.36345 0 0.52882 0.28594h7e-3v-1.0921h0.2825zm-0.2825-0.79754v-0.2601q0-0.2136-0.14125-0.36174t-0.35829-0.14814q-0.25838 0-0.40652 0.18948t-0.14814 0.52366q0 0.30489 0.14125 0.48231 0.14297 0.1757 0.3824 0.1757 0.23599 0 0.38241-0.17053 0.14814-0.17053 0.14814-0.43064z" style="font-variant-caps:normal;font-variant-east-asian:normal;font-variant-ligatures:normal;font-variant-numeric:normal"/>
    <path d="m-172.47 139.01q-0.52538 0-0.84233-0.34623-0.31523-0.34623-0.31523-0.90089 0-0.59601 0.32212-0.95085 0.32212-0.35485 0.87678-0.35485 0.51159 0 0.82337 0.34451 0.31351 0.34451 0.31351 0.9009 0 0.60461-0.3204 0.95601-0.32039 0.3514-0.85782 0.3514zm0.0207-2.291q-0.3893 0-0.63218 0.28078-0.24288 0.28077-0.24288 0.73725 0 0.45647 0.23599 0.73553 0.23771 0.27733 0.6184 0.27733 0.40652 0 0.64078-0.26528 0.23427-0.26527 0.23427-0.74241 0-0.48921-0.22738-0.7562-0.22737-0.267-0.627-0.267z" style="font-variant-caps:normal;font-variant-east-asian:normal;font-variant-ligatures:normal;font-variant-numeric:normal"/>
    <path d="m-170.56 138.97h-0.2825v-2.6114h0.2825z" style="font-variant-caps:normal;font-variant-east-asian:normal;font-variant-ligatures:normal;font-variant-numeric:normal"/>
    <path d="m-169.85 136.76q-0.0758 0-0.12919-0.0517-0.0534-0.0517-0.0534-0.13091 0-0.0792 0.0534-0.13092 0.0534-0.0534 0.12919-0.0534 0.0775 0 0.13091 0.0534 0.0551 0.0517 0.0551 0.13092 0 0.0758-0.0551 0.12919-0.0534 0.0534-0.13091 0.0534zm0.1378 2.2118h-0.28249v-1.7639h0.28249z" style="font-variant-caps:normal;font-variant-east-asian:normal;font-variant-ligatures:normal;font-variant-numeric:normal"/>
    <path d="m-167.75 137.2-0.7028 1.7639h-0.27733l-0.66835-1.7639h0.31006l0.44786 1.2816q0.05 0.14125 0.062 0.24632h7e-3q0.0172-0.13263 0.0551-0.23943l0.46853-1.2885z" style="font-variant-caps:normal;font-variant-east-asian:normal;font-variant-ligatures:normal;font-variant-numeric:normal"/>
    <path d="m-167.31 136.76q-0.0758 0-0.12919-0.0517-0.0534-0.0517-0.0534-0.13091 0-0.0792 0.0534-0.13092 0.0534-0.0534 0.12919-0.0534 0.0775 0 0.13091 0.0534 0.0551 0.0517 0.0551 0.13092 0 0.0758-0.0551 0.12919-0.0534 0.0534-0.13091 0.0534zm0.1378 2.2118h-0.28249v-1.7639h0.28249z" style="font-variant-caps:normal;font-variant-east-asian:normal;font-variant-ligatures:normal;font-variant-numeric:normal"/>
    <path d="m-165.33 138.97h-0.2825v-0.27561h-7e-3q-0.18431 0.31695-0.5426 0.31695-0.26355 0-0.41341-0.13952-0.14814-0.13953-0.14814-0.37035 0-0.49437 0.58222-0.57533l0.52882-0.0741q0-0.44959-0.36346-0.44959-0.31867 0-0.57533 0.21704v-0.28939q0.26011-0.16536 0.59945-0.16536 0.62184 0 0.62184 0.65801zm-0.2825-0.89228-0.42547 0.0586q-0.19637 0.0276-0.29628 0.0982-0.0999 0.0689-0.0999 0.24633 0 0.12919 0.0913 0.21187 0.093 0.081 0.24633 0.081 0.21015 0 0.34623-0.14642 0.1378-0.14814 0.1378-0.37379z" style="font-variant-caps:normal;font-variant-east-asian:normal;font-variant-ligatures:normal;font-variant-numeric:normal"/>
    <path d="m-162.17 138.75-1.4814-0.74414v-0.10163l1.4814-0.83027v0.25838l-1.1059 0.61323v7e-3l1.1059 0.54088z" style="font-variant-caps:normal;font-variant-east-asian:normal;font-variant-ligatures:normal;font-variant-numeric:normal"/>
    <path d="m-160.39 139.01q-0.52538 0-0.84233-0.34623-0.31523-0.34623-0.31523-0.90089 0-0.59601 0.32212-0.95085 0.32212-0.35485 0.87678-0.35485 0.5116 0 0.82338 0.34451 0.3135 0.34451 0.3135 0.9009 0 0.60461-0.32039 0.95601-0.3204 0.3514-0.85783 0.3514zm0.0207-2.291q-0.3893 0-0.63218 0.28078-0.24288 0.28077-0.24288 0.73725 0 0.45647 0.23599 0.73553 0.23771 0.27733 0.6184 0.27733 0.40652 0 0.64079-0.26528 0.23426-0.26527 0.23426-0.74241 0-0.48921-0.22737-0.7562-0.22738-0.267-0.62701-0.267z" style="font-variant-caps:normal;font-variant-east-asian:normal;font-variant-ligatures:normal;font-variant-numeric:normal"/>
    <path d="m-158.48 138.97h-0.2825v-2.6114h0.2825z" style="font-variant-caps:normal;font-variant-east-asian:normal;font-variant-ligatures:normal;font-variant-numeric:normal"/>
    <path d="m-157.76 136.76q-0.0758 0-0.12919-0.0517-0.0534-0.0517-0.0534-0.13091 0-0.0792 0.0534-0.13092 0.0534-0.0534 0.12919-0.0534 0.0775 0 0.13092 0.0534 0.0551 0.0517 0.0551 0.13092 0 0.0758-0.0551 0.12919-0.0534 0.0534-0.13092 0.0534zm0.13781 2.2118h-0.2825v-1.7639h0.2825z" style="font-variant-caps:normal;font-variant-east-asian:normal;font-variant-ligatures:normal;font-variant-numeric:normal"/>
    <path d="m-155.67 137.2-0.7028 1.7639h-0.27733l-0.66834-1.7639h0.31005l0.44787 1.2816q0.0499 0.14125 0.062 0.24632h7e-3q0.0172-0.13263 0.0551-0.23943l0.46853-1.2885z" style="font-variant-caps:normal;font-variant-east-asian:normal;font-variant-ligatures:normal;font-variant-numeric:normal"/>
    <path d="m-155.22 136.76q-0.0758 0-0.1292-0.0517t-0.0534-0.13091q0-0.0792 0.0534-0.13092 0.0534-0.0534 0.1292-0.0534 0.0775 0 0.13091 0.0534 0.0551 0.0517 0.0551 0.13092 0 0.0758-0.0551 0.12919-0.0534 0.0534-0.13091 0.0534zm0.1378 2.2118h-0.2825v-1.7639h0.2825z" style="font-variant-caps:normal;font-variant-east-asian:normal;font-variant-ligatures:normal;font-variant-numeric:normal"/>
    <path d="m-153.25 138.97h-0.2825v-0.27561h-7e-3q-0.18431 0.31695-0.5426 0.31695-0.26355 0-0.41341-0.13952-0.14814-0.13953-0.14814-0.37035 0-0.49437 0.58222-0.57533l0.52882-0.0741q0-0.44959-0.36345-0.44959-0.31868 0-0.57534 0.21704v-0.28939q0.26011-0.16536 0.59945-0.16536 0.62184 0 0.62184 0.65801zm-0.2825-0.89228-0.42547 0.0586q-0.19637 0.0276-0.29627 0.0982-0.0999 0.0689-0.0999 0.24633 0 0.12919 0.0913 0.21187 0.093 0.081 0.24633 0.081 0.21015 0 0.34623-0.14642 0.1378-0.14814 0.1378-0.37379z" style="font-variant-caps:normal;font-variant-east-asian:normal;font-variant-ligatures:normal;font-variant-numeric:normal"/>
    <path d="m-152.38 138.03v0.93362h-0.28939v-2.4701h0.67869q0.39618 0 0.61322 0.19292 0.21877 0.19293 0.21877 0.54433t-0.24288 0.57533q-0.24116 0.22393-0.65285 0.22393zm0-1.2747v1.0129h0.30317q0.29972 0 0.45648-0.13608 0.15847-0.1378 0.15847-0.38757 0-0.48921-0.57878-0.48921z" style="font-variant-caps:normal;font-variant-east-asian:normal;font-variant-ligatures:normal;font-variant-numeric:normal"/>
    <path d="m-149.31 138.97h-0.28249v-0.27905h-7e-3q-0.1757 0.32039-0.54432 0.32039-0.63045 0-0.63045-0.75103v-1.0542h0.28077v1.0094q0 0.55811 0.42719 0.55811 0.20671 0 0.33935-0.15158 0.13436-0.15331 0.13436-0.39964v-1.0163h0.28249z" style="font-variant-caps:normal;font-variant-east-asian:normal;font-variant-ligatures:normal;font-variant-numeric:normal"/>
    <path d="m-148.45 138.71h-7e-3v0.25494h-0.28249v-2.6114h0.28249v1.1576h7e-3q0.20843-0.3514 0.60979-0.3514 0.33934 0 0.53054 0.23771 0.19293 0.23599 0.19293 0.6339 0 0.44269-0.21532 0.70969-0.21532 0.26527-0.58911 0.26527-0.34968 0-0.52883-0.29628zm-7e-3 -0.71141v0.24633q0 0.21876 0.14125 0.37207 0.14297 0.15158 0.36174 0.15158 0.25666 0 0.40135-0.19637 0.14642-0.19637 0.14642-0.54605 0-0.29455-0.13608-0.46164t-0.36863-0.16709q-0.24632 0-0.39618 0.17226-0.14987 0.17053-0.14987 0.42891z" style="font-variant-caps:normal;font-variant-east-asian:normal;font-variant-ligatures:normal;font-variant-numeric:normal"/>
    <path d="m-144.91 138.97h-0.40308l-0.95429-1.13q-0.0534-0.0637-0.0655-0.0861h-7e-3v1.2161h-0.28939v-2.4701h0.28939v1.161h7e-3q0.0241-0.0379 0.0655-0.0844l0.92329-1.0766h0.36001l-1.0594 1.1851z" style="font-variant-caps:normal;font-variant-east-asian:normal;font-variant-ligatures:normal;font-variant-numeric:normal"/>
    <path d="m-143.25 138.16h-1.2454q7e-3 0.29456 0.15847 0.45475 0.15159 0.1602 0.41686 0.1602 0.298 0 0.54777-0.19637v0.26527q-0.23254 0.16881-0.61495 0.16881-0.37379 0-0.58739-0.23943-0.21359-0.24116-0.21359-0.67696 0-0.41169 0.23254-0.67008 0.23427-0.2601 0.5805-0.2601t0.53571 0.22393 0.18948 0.62184zm-0.28938-0.23943q-2e-3 -0.24461-0.11886-0.38069-0.11541-0.13608-0.32212-0.13608-0.19981 0-0.33934 0.14297t-0.17225 0.3738z" style="font-variant-caps:normal;font-variant-east-asian:normal;font-variant-ligatures:normal;font-variant-numeric:normal"/>
    <path d="m-141.41 137.2-0.81132 2.0464q-0.21704 0.54777-0.60978 0.54777-0.11024 0-0.18431-0.0224v-0.25322q0.0913 0.031 0.16708 0.031 0.2136 0 0.3204-0.25494l0.14125-0.33417-0.68902-1.7604h0.3135l0.47715 1.3574q9e-3 0.0258 0.0362 0.13436h0.0103q9e-3 -0.0413 0.0344-0.13092l0.50126-1.3608z" style="font-variant-caps:normal;font-variant-east-asian:normal;font-variant-ligatures:normal;font-variant-numeric:normal"/>
    <path d="m-139.44 138-1.4814 0.74414v-0.25666l1.1093-0.53744v-0.0103l-1.1093-0.61323v-0.25838l1.4814 0.83027z" style="font-variant-caps:normal;font-variant-east-asian:normal;font-variant-ligatures:normal;font-variant-numeric:normal"/>
   </g>
  </g>
  <g fill="none" stroke="#000" stroke-width=".265">
   <path d="m478.89 168.66 1e-5 4.1157" marker-end="url(#marker1459)"/>
   <path d="m458.13 234.22-17.316 21.914" marker-end="url(#marker1469)"/>
   <path d="m499.13 233.54 17.851 22.591" marker-end="url(#marker1479)"/>
  </g>
  <text x="427.3092" y="133.82025" fill="#000000" font-family="'Segoe UI'" font-size="7.0556px" stroke-width=".26458" style="font-variant-caps:normal;font-variant-east-asian:normal;font-variant-ligatures:normal;font-variant-numeric:normal;line-height:1.25" xml:space="preserve"><tspan x="427.3092" y="133.82025" font-family="'Segoe UI'" font-size="7.0556px" stroke-width=".26458" style="font-variant-caps:normal;font-variant-east-asian:normal;font-variant-ligatures:normal;font-variant-numeric:normal">Olivia wants to become an oracle</tspan></text>
 </g>
</svg>
